<svg width="27" height="20" viewBox="0 0 27 20" fill="none" xmlns="http://www.w3.org/2000/svg">
<path fill-rule="evenodd" clip-rule="evenodd" d="M27.6817 20.0533H-0.964844V0H27.6817V20.0533Z" fill="white"/>
<path fill-rule="evenodd" clip-rule="evenodd" d="M27.6817 4.51201H-0.964844V1.88H27.6817V4.51201ZM27.6817 18.2399H-0.964844V15.6079H27.6817V18.2399ZM8.76415 7.46909L13.0764 14.9734L17.4827 7.50434L8.76415 7.47301V7.46909Z" fill="#0000CC"/>
<path fill-rule="evenodd" clip-rule="evenodd" d="M12.2656 12.4472L13.0842 13.8376L13.9224 12.455L12.2617 12.4472H12.2656Z" fill="white"/>
<path fill-rule="evenodd" clip-rule="evenodd" d="M8.75 12.5569L13.0662 5.05249L17.4685 12.5255L8.75 12.5569Z" fill="#0000CC"/>
<path fill-rule="evenodd" clip-rule="evenodd" d="M12.2646 7.50434L13.0832 6.11392L13.9214 7.50042L12.2607 7.50434H12.2646ZM10.5491 10.6181L9.69922 12.0281L11.3051 12.0242L10.5491 10.6142V10.6181ZM9.71489 8.0135L11.3286 8.02525L10.5531 9.447L9.71489 8.0135ZM15.6369 10.6377L16.4555 12.0281L14.8222 12.0085L15.6369 10.6377ZM16.4398 8.0135L14.8261 8.02525L15.6016 9.447L16.4398 8.0135ZM11.9631 8.0135L10.8507 10.0267L11.9787 11.9967L14.0467 12.0437L15.3001 10.0267L14.1407 7.99L11.9631 8.00958V8.0135Z" fill="white"/>
</svg>
