<svg width="32" height="32" viewBox="0 0 32 32" fill="none" xmlns="http://www.w3.org/2000/svg">
<g clip-path="url(#clip0_1237_211)">
<path d="M25 32H7.00002C5.34571 32 4 30.6543 4 29V9.82809C4 9.02732 4.31248 8.27337 4.87893 7.70699L11.7071 0.878925C12.2734 0.31248 13.0273 0 13.8282 0H25C26.6543 0 28 1.34571 28 3.00002V29C28 30.6543 26.6543 32 25 32ZM13.8282 1.99999C13.5654 1.99999 13.3077 2.10647 13.1211 2.29297L6.29297 9.1211C6.10647 9.3076 5.99999 9.56544 5.99999 9.82815V29C5.99999 29.5518 6.4482 30.0001 7.00002 30.0001H25C25.5518 30.0001 26 29.5519 26 29V3.00002C26 2.44827 25.5518 1.99999 25 1.99999H13.8282Z" fill="#E5E5E5"/>
<g clip-path="url(#clip1_1237_211)">
<path d="M23.8316 23.4497C22.63 22.2483 21.2 21.3588 19.6396 20.8204C21.3108 19.6694 22.4087 17.7431 22.4087 15.565C22.4087 12.0484 19.5478 9.18752 16.0312 9.18752C12.5147 9.18752 9.65381 12.0484 9.65381 15.565C9.65381 17.7431 10.7517 19.6694 12.4229 20.8204C10.8626 21.3588 9.43249 22.2483 8.23099 23.4497C6.14747 25.5333 5 28.3035 5 31.25H6.72363C6.72363 26.1178 10.899 21.9424 16.0312 21.9424C21.1635 21.9424 25.3389 26.1178 25.3389 31.25H27.0625C27.0625 28.3035 25.915 25.5333 23.8316 23.4497ZM16.0312 20.2188C13.4651 20.2188 11.3774 18.1311 11.3774 15.565C11.3774 12.9988 13.4651 10.9111 16.0312 10.9111C18.5974 10.9111 20.6851 12.9988 20.6851 15.565C20.6851 18.1311 18.5974 20.2188 16.0312 20.2188Z" fill="#E5E5E5"/>
</g>
</g>
<defs>
<clipPath id="clip0_1237_211">
<rect width="32" height="32" fill="white"/>
</clipPath>
<clipPath id="clip1_1237_211">
<rect width="22.0625" height="22.0625" fill="white" transform="translate(5 9.18752)"/>
</clipPath>
</defs>
</svg>
