<svg width="16" height="17" viewBox="0 0 16 17" fill="none" xmlns="http://www.w3.org/2000/svg">
<g id="Group">
<g id="Group_2">
<path id="Vector" d="M13.8667 0H2.13333C0.9568 0 0 0.9482 0 2.11416V11.6279C0 12.7938 0.9568 13.742 2.13333 13.742V15.8551C2.13333 16.0602 2.2528 16.2462 2.44053 16.334C2.512 16.3668 2.58987 16.3837 2.66667 16.3837C2.78933 16.3837 2.91093 16.3424 3.008 16.261L6.05973 13.742H13.8667C15.0432 13.742 16 12.7938 16 11.6279V2.11416C16 0.9482 15.0432 0 13.8667 0ZM3.73333 6.34247C4.61547 6.34247 5.33333 7.05389 5.33333 7.92809C5.33333 8.8023 4.61547 9.51371 3.73333 9.51371H2.66667C2.37227 9.51371 2.13333 9.27693 2.13333 8.98517C2.13333 8.69342 2.37227 8.45663 2.66667 8.45663H3.73333C4.02773 8.45663 4.26667 8.21985 4.26667 7.92809C4.26667 7.63634 4.02773 7.39955 3.73333 7.39955C2.8512 7.39955 2.13333 6.68814 2.13333 5.81393C2.13333 4.93973 2.8512 4.22832 3.73333 4.22832H4.8C5.0944 4.22832 5.33333 4.4651 5.33333 4.75686C5.33333 5.04861 5.0944 5.28539 4.8 5.28539H3.73333C3.43893 5.28539 3.2 5.52218 3.2 5.81393C3.2 6.10569 3.43893 6.34247 3.73333 6.34247ZM9.6 8.98517C9.6 9.27693 9.36107 9.51371 9.06667 9.51371C8.77227 9.51371 8.53333 9.27693 8.53333 8.98517V6.99575L8.4768 7.1078C8.29547 7.46615 7.70347 7.46615 7.52213 7.1078L7.46667 6.99575V8.98517C7.46667 9.27693 7.22773 9.51371 6.93333 9.51371C6.63893 9.51371 6.4 9.27693 6.4 8.98517V4.75686C6.4 4.51161 6.57067 4.29808 6.81067 4.24206C7.04853 4.18498 7.2992 4.30125 7.41013 4.52007L8 5.6892L8.58987 4.52113C8.69973 4.3002 8.944 4.18603 9.18933 4.24206C9.4304 4.29808 9.6 4.51161 9.6 4.75686V8.98517ZM12.2667 6.34247C13.1488 6.34247 13.8667 7.05389 13.8667 7.92809C13.8667 8.8023 13.1488 9.51371 12.2667 9.51371H11.2C10.9056 9.51371 10.6667 9.27693 10.6667 8.98517C10.6667 8.69342 10.9056 8.45663 11.2 8.45663H12.2667C12.56 8.45663 12.8 8.21985 12.8 7.92809C12.8 7.63634 12.56 7.39955 12.2667 7.39955C11.3845 7.39955 10.6667 6.68814 10.6667 5.81393C10.6667 4.93973 11.3845 4.22832 12.2667 4.22832H13.3333C13.6277 4.22832 13.8667 4.4651 13.8667 4.75686C13.8667 5.04861 13.6277 5.28539 13.3333 5.28539H12.2667C11.9733 5.28539 11.7333 5.52218 11.7333 5.81393C11.7333 6.10569 11.9733 6.34247 12.2667 6.34247Z" fill="white"/>
</g>
</g>
</svg>
