<svg width="27" height="20" viewBox="0 0 27 20" fill="none" xmlns="http://www.w3.org/2000/svg">
<path fill-rule="evenodd" clip-rule="evenodd" d="M0 0H37.8973V1.53906H0V0ZM0 3.07812H37.8973V4.61719H0V3.07812ZM0 6.15234H37.8973V7.69531H0V6.15234ZM0 9.23047H37.8973V10.7695H0V9.23047ZM0 12.3086H37.8973V13.8477H0V12.3086ZM0 15.3828H37.8973V16.9219H0V15.3828ZM0 18.4609H37.8973V20H0V18.4609Z" fill="#BD3D44"/>
<path fill-rule="evenodd" clip-rule="evenodd" d="M0 1.53906H37.8973V3.07812H0V1.53906ZM0 4.61719H37.8973V6.15234H0V4.61719ZM0 7.69141H37.8973V9.23047H0V7.69141ZM0 10.7695H37.8973V12.3086H0V10.7695ZM0 13.8477H37.8973V15.3867H0V13.8477ZM0 16.9219H37.8973V18.4609H0V16.9219Z" fill="white"/>
<path fill-rule="evenodd" clip-rule="evenodd" d="M0 0H15.1581V10.7695H0V0Z" fill="#244A98"/>
<path fill-rule="evenodd" clip-rule="evenodd" d="M1.26404 0.460938L1.40429 0.886719H1.8484L1.48999 1.14844L1.62634 1.57812L1.26404 1.3125L0.905638 1.57422L1.04199 1.14844L0.679688 0.886719H1.13159L1.26404 0.460938ZM3.79235 0.460938L3.9287 0.886719H4.3767L4.0144 1.14844L4.15075 1.57812L3.79235 1.3125L3.43005 1.57422L3.5664 1.14844L3.20799 0.886719H3.6521L3.79235 0.460938ZM6.31676 0.460938L6.457 0.886719H6.89721L6.53881 1.14844L6.67516 1.57812L6.31286 1.3125L5.95446 1.57422L6.0908 1.14844L5.72851 0.886719H6.17651L6.31676 0.460938ZM8.84506 0.460938L8.98141 0.886719H9.42941L9.06711 1.14844L9.20736 1.57812L8.84506 1.3125L8.48276 1.57422L8.623 1.14844L8.26071 0.886719H8.70481L8.84506 0.460938ZM11.3695 0.460938L11.5097 0.886719H11.9538L11.5954 1.14844L11.7318 1.57812L11.3695 1.3125L11.0111 1.57422L11.1474 1.14844L10.789 0.886719H11.2331L11.3695 0.460938ZM13.8978 0.460938L14.0341 0.886719H14.4821L14.1198 1.14844L14.2601 1.57812L13.8978 1.3125L13.5355 1.57422L13.6757 1.14844L13.3134 0.886719H13.7614L13.8978 0.460938ZM2.53014 1.53906L2.66649 1.96484H3.1145L2.7522 2.22656L2.88465 2.65234L2.53404 2.39062L2.17174 2.65234L2.3003 2.22656L1.94968 1.96484H2.39379L2.53014 1.53906ZM5.05455 1.53906L5.1948 1.96484H5.6389L5.2766 2.22656L5.41685 2.65234L5.05455 2.39062L4.69225 2.65234L4.8325 2.22656L4.4702 1.96484H4.9182L5.05455 1.53906ZM7.58286 1.53906L7.7192 1.96484H8.16721L7.80491 2.22656L7.94126 2.65234L7.58286 2.39062L7.22056 2.65234L7.3569 2.22656L6.9985 1.96484H7.44261L7.58286 1.53906ZM10.1073 1.53906L10.2475 1.96484H10.6916L10.3293 2.22656L10.4696 2.65234L10.1073 2.39062L9.74886 2.65234L9.88521 2.22656L9.52291 1.96484H9.97481L10.1073 1.53906ZM12.6356 1.53906L12.7719 1.96484H13.2199L12.8576 2.22656L12.994 2.65234L12.6356 2.39062L12.2733 2.65234L12.4096 2.22656L12.0512 1.96484H12.4953L12.6356 1.53906ZM1.26404 2.61328L1.40429 3.04687H1.8484L1.48999 3.30859L1.62634 3.73437L1.26404 3.46875L0.905638 3.73437L1.04199 3.30469L0.679688 3.04297H1.13159L1.26404 2.61328ZM3.79235 2.61328L3.9287 3.04297H4.3767L4.0144 3.30469L4.15075 3.73047L3.79235 3.46484L3.43005 3.73047L3.5664 3.30078L3.20799 3.03906H3.6521L3.79235 2.61328ZM6.31676 2.61328L6.457 3.04297H6.89721L6.53881 3.30469L6.67516 3.73047L6.31286 3.46484L5.95446 3.73047L6.0908 3.30078L5.72851 3.03906H6.17651L6.31676 2.61328ZM8.84506 2.61328L8.98141 3.04297H9.42941L9.06711 3.30469L9.20736 3.73047L8.84506 3.46484L8.48276 3.73047L8.623 3.30078L8.26071 3.03906H8.70481L8.84506 2.61328ZM11.3695 2.61328L11.5097 3.04297H11.9538L11.5954 3.30469L11.7318 3.73047L11.3695 3.46484L11.0111 3.73047L11.1474 3.30078L10.789 3.03906H11.2331L11.3695 2.61328ZM13.8978 2.61328L14.0341 3.04297H14.4821L14.1198 3.30469L14.2601 3.73047L13.8978 3.46484L13.5355 3.73047L13.6757 3.30078L13.3134 3.03906H13.7614L13.8978 2.61328ZM2.53014 3.69141L2.66649 4.11719H3.1145L2.7522 4.37891L2.88855 4.80859L2.53014 4.54297L2.16784 4.80469L2.30419 4.37891L1.94579 4.11719H2.3899L2.53014 3.69141ZM5.05455 3.69141L5.1948 4.11719H5.6389L5.2766 4.37891L5.41685 4.80859L5.05455 4.54297L4.69225 4.80469L4.8325 4.37891L4.4702 4.11719H4.9182L5.05455 3.69141ZM7.58286 3.69141L7.7192 4.11719H8.16721L7.80491 4.37891L7.94126 4.80859L7.58286 4.54297L7.22056 4.80469L7.3569 4.37891L6.9985 4.11719H7.44261L7.58286 3.69141ZM10.1073 3.69141L10.2475 4.11719H10.6916L10.3332 4.37891L10.4696 4.80859L10.1073 4.54297L9.74886 4.80469L9.88521 4.37891L9.52291 4.11719H9.97481L10.1073 3.69141ZM12.6356 3.69141L12.7719 4.11719H13.2199L12.8576 4.37891L12.994 4.80859L12.6356 4.54297L12.2733 4.80469L12.4096 4.37891L12.0512 4.11719H12.4953L12.6356 3.69141ZM1.26404 4.76953L1.40429 5.19531H1.8484L1.48999 5.45703L1.62634 5.88672L1.26404 5.62109L0.905638 5.88281L1.04199 5.45703L0.679688 5.19531H1.13159L1.26404 4.76953ZM3.79235 4.76953L3.9287 5.19531H4.3767L4.0144 5.45703L4.15075 5.88281L3.79235 5.62109L3.43005 5.88281L3.5664 5.45703L3.20799 5.19531H3.6521L3.79235 4.76953ZM6.31676 4.76953L6.457 5.19531H6.89721L6.53881 5.45703L6.67516 5.88672L6.31286 5.62109L5.95446 5.88281L6.0908 5.45703L5.72851 5.19531H6.17651L6.31676 4.76953ZM8.84506 4.76953L8.98141 5.19531H9.42941L9.06711 5.45703L9.20736 5.88672L8.84506 5.62109L8.48276 5.88281L8.623 5.45703L8.26071 5.19531H8.70481L8.84506 4.76953ZM11.3695 4.76953L11.5097 5.19531H11.9538L11.5954 5.45703L11.7318 5.88672L11.3695 5.62109L11.0111 5.88281L11.1474 5.45703L10.789 5.19531H11.2331L11.3695 4.76953ZM13.8978 4.76953L14.0341 5.19531H14.4821L14.1198 5.45703L14.2601 5.88672L13.8978 5.62109L13.5355 5.88281L13.6757 5.45703L13.3134 5.19531H13.7614L13.8978 4.76953ZM2.53014 5.84766L2.66649 6.27344H3.1145L2.7522 6.53516L2.88855 6.96094L2.53014 6.69531L2.16784 6.96094L2.30419 6.53125L1.94579 6.26953H2.3899L2.53014 5.84766ZM5.05455 5.84766L5.1948 6.27344H5.6389L5.2766 6.53516L5.41685 6.96094L5.05455 6.69531L4.69225 6.96094L4.8325 6.53125L4.4702 6.26953H4.9182L5.05455 5.84766ZM7.58286 5.84766L7.7192 6.27344H8.16721L7.80491 6.53516L7.94126 6.96094L7.58286 6.69531L7.22056 6.96094L7.3569 6.53125L6.9985 6.26953H7.44261L7.58286 5.84766ZM10.1073 5.84766L10.2475 6.27344H10.6916L10.3332 6.53516L10.4696 6.96094L10.1073 6.69531L9.74886 6.96094L9.88521 6.53125L9.52291 6.26953H9.97481L10.1073 5.84766ZM12.6356 5.84766L12.7719 6.27344H13.2199L12.8576 6.53516L12.994 6.96094L12.6356 6.69531L12.2733 6.96094L12.4096 6.53125L12.0512 6.26953H12.4953L12.6356 5.84766ZM1.26404 6.92187L1.40429 7.35156H1.8484L1.48999 7.61328L1.62634 8.03516L1.26404 7.77344L0.905638 8.03516L1.04199 7.60937L0.679688 7.34766H1.13159L1.26404 6.92187ZM3.79235 6.92187L3.9287 7.35156H4.3767L4.0144 7.61328L4.15465 8.03516L3.79235 7.77344L3.43005 8.03516L3.57029 7.60937L3.20799 7.34766H3.6521L3.79235 6.92187ZM6.31676 6.92187L6.457 7.35156H6.89721L6.53881 7.61328L6.67516 8.03516L6.31286 7.77344L5.95446 8.03516L6.0908 7.60937L5.72851 7.34766H6.17651L6.31676 6.92187ZM8.84506 6.92187L8.98141 7.35156H9.42941L9.06711 7.61328L9.20736 8.03516L8.84506 7.77344L8.48276 8.03516L8.623 7.60937L8.26071 7.34766H8.70481L8.84506 6.92187ZM11.3695 6.92187L11.5097 7.35156H11.9538L11.5954 7.61328L11.7318 8.03516L11.3695 7.77344L11.0111 8.03516L11.1474 7.60937L10.789 7.34766H11.2331L11.3695 6.92187ZM13.8978 6.92187L14.0341 7.35156H14.4821L14.1198 7.61328L14.2601 8.03516L13.8978 7.77344L13.5355 8.03516L13.6757 7.60937L13.3134 7.34766H13.7614L13.8978 6.92187ZM2.53014 8L2.66649 8.42578H3.1145L2.7522 8.6875L2.88855 9.11719L2.53014 8.85156L2.16784 9.11328L2.30419 8.6875L1.94579 8.42578H2.3899L2.53014 8ZM5.05455 8L5.1948 8.42578H5.6389L5.2766 8.6875L5.41685 9.11719L5.05455 8.85156L4.69225 9.11328L4.8325 8.6875L4.4702 8.42578H4.9182L5.05455 8ZM7.58286 8L7.7192 8.42578H8.16721L7.80491 8.6875L7.94126 9.11719L7.58286 8.85156L7.22056 9.11328L7.3569 8.6875L6.9985 8.42578H7.44261L7.58286 8ZM10.1073 8L10.2475 8.42578H10.6916L10.3332 8.6875L10.4696 9.11719L10.1073 8.85156L9.74886 9.11328L9.88521 8.6875L9.52291 8.42578H9.97481L10.1073 8ZM12.6356 8L12.7719 8.42578H13.2199L12.8576 8.6875L12.994 9.11719L12.6356 8.85156L12.2733 9.11328L12.4096 8.6875L12.0512 8.42578H12.4953L12.6356 8ZM1.26404 9.07812L1.40429 9.50391H1.8484L1.48999 9.76562L1.62634 10.1914L1.26404 9.92969L0.905638 10.1914L1.04199 9.76172L0.679688 9.5H1.13159L1.26404 9.07812ZM3.79235 9.07812L3.9287 9.50391H4.3767L4.0144 9.76562L4.15465 10.1914L3.79235 9.92969L3.43005 10.1914L3.57029 9.76172L3.20799 9.5H3.6521L3.79235 9.07812ZM6.31676 9.07812L6.457 9.50391H6.89721L6.5466 9.76562L6.68295 10.1914L6.32065 9.92969L5.96225 10.1914L6.0986 9.76172L5.7363 9.5H6.1843L6.31676 9.07812ZM8.84506 9.07812L8.98141 9.50391H9.42941L9.06711 9.76562L9.20736 10.1914L8.84506 9.92969L8.48276 10.1914L8.623 9.76172L8.26071 9.5H8.70481L8.84506 9.07812ZM11.3695 9.07812L11.5097 9.50391H11.9538L11.5954 9.76562L11.7318 10.1914L11.3695 9.92969L11.0111 10.1914L11.1474 9.76172L10.789 9.5H11.2331L11.3695 9.07812ZM13.8978 9.07812L14.0341 9.50391H14.4821L14.1198 9.76562L14.2601 10.1914L13.8978 9.92969L13.5355 10.1914L13.6757 9.76172L13.3134 9.5H13.7614L13.8978 9.07812Z" fill="white"/>
</svg>
