<svg width="16" height="16" viewBox="0 0 16 16" fill="none" xmlns="http://www.w3.org/2000/svg">
<g id="Page 4">
<g id="003   Call">
<path id="Shape" d="M6.62593 9.29095C5.09885 7.77759 4.75404 6.26422 4.67625 5.65789C4.65451 5.49024 4.71273 5.32211 4.83376 5.20301L6.06955 3.97887C6.25133 3.79883 6.28359 3.51824 6.14734 3.30228L4.17973 0.274463C4.02898 0.0353342 3.71946 -0.0509697 3.46501 0.075178L0.306298 1.54945C0.100533 1.64986 -0.0204949 1.86652 0.00286742 2.09263C0.168375 3.65083 0.853852 7.48126 4.65225 11.2458C8.45065 15.0104 12.3153 15.6894 13.8884 15.8534C14.1166 15.8766 14.3352 15.7566 14.4365 15.5527L15.9241 12.4224C16.051 12.1708 15.9645 11.8648 15.7242 11.7152L12.6689 9.76579C12.4511 9.63062 12.168 9.66236 11.9862 9.84233L10.7509 11.067C10.6307 11.187 10.4611 11.2447 10.2919 11.2231C9.6801 11.146 8.15301 10.8043 6.62593 9.29095Z" fill="white"/>
<path id="Shape_2" d="M12.6903 8.4745C12.3856 8.4745 12.1386 8.22972 12.1386 7.92776C12.136 5.66411 10.285 3.8297 8.00091 3.82714C7.69622 3.82714 7.44922 3.58235 7.44922 3.28039C7.44922 2.97843 7.69622 2.73364 8.00091 2.73364C10.8941 2.73681 13.2388 5.06044 13.242 7.92776C13.242 8.22972 12.995 8.4745 12.6903 8.4745Z" fill="white"/>
<path id="Shape_3" d="M15.4487 8.47444C15.144 8.47444 14.897 8.22966 14.897 7.9277C14.8928 4.15501 11.8078 1.09769 8.00091 1.09348C7.69622 1.09348 7.44922 0.848693 7.44922 0.546738C7.44922 0.244783 7.69622 0 8.00091 0C12.4169 0.0048211 15.9956 3.55135 16.0004 7.9277C16.0004 8.07271 15.9423 8.21177 15.8388 8.31431C15.7354 8.41684 15.5951 8.47444 15.4487 8.47444Z" fill="white"/>
</g>
</g>
</svg>
