<svg width="32" height="32" viewBox="0 0 32 32" fill="none" xmlns="http://www.w3.org/2000/svg">
<path d="M16 7.25H16.875C18.3247 7.25 19.5 8.42525 19.5 9.875C19.5 10.3582 19.1082 10.75 18.625 10.75C18.1418 10.75 17.75 10.3582 17.75 9.875C17.75 9.39175 17.3582 9 16.875 9H9.875C9.39175 9 9 9.39175 9 9.875V11.625C9 12.1082 9.39175 12.5 9.875 12.5H16.875C18.3247 12.5 19.5 13.6753 19.5 15.125V16.875C19.5 18.3247 18.3247 19.5 16.875 19.5H16V20.375C16 20.8582 15.6082 21.25 15.125 21.25C14.6418 21.25 14.25 20.8582 14.25 20.375V19.5H12.5V20.375C12.5 20.8582 12.1082 21.25 11.625 21.25C11.1418 21.25 10.75 20.8582 10.75 20.375V19.5H9.875C8.42525 19.5 7.25 18.3247 7.25 16.875C7.25 16.3918 7.64175 16 8.125 16C8.60825 16 9 16.3918 9 16.875C9 17.3582 9.39175 17.75 9.875 17.75H16.875C17.3582 17.75 17.75 17.3582 17.75 16.875V15.125C17.75 14.6418 17.3582 14.25 16.875 14.25H9.875C8.42525 14.25 7.25 13.0747 7.25 11.625V9.875C7.25 8.42525 8.42525 7.25 9.875 7.25H10.75V6.375C10.75 5.89175 11.1418 5.5 11.625 5.5C12.1082 5.5 12.5 5.89175 12.5 6.375V7.25H14.25V6.375C14.25 5.89175 14.6418 5.5 15.125 5.5C15.6082 5.5 16 5.89175 16 6.375V7.25ZM24.75 24.75V4.625C24.75 3.17525 23.5747 2 22.125 2H4.625C3.17525 2 2 3.17525 2 4.625V28.25C2 29.2165 2.7835 30 3.75 30C4.7165 30 5.5 29.2165 5.5 28.25V25.625C5.5 25.1418 5.89175 24.75 6.375 24.75H24.75ZM26.5 24.75H30.875C31.3582 24.75 31.75 25.1418 31.75 25.625V27.375C31.75 29.7912 29.7912 31.75 27.375 31.75H3.75C1.817 31.75 0.25 30.183 0.25 28.25V4.625C0.25 2.20875 2.20875 0.25 4.625 0.25H22.125C24.5412 0.25 26.5 2.20875 26.5 4.625V24.75ZM27.375 30C28.8247 30 30 28.8247 30 27.375V26.5H7.25V28.25C7.25 28.8875 7.07956 29.4852 6.78176 30H27.375Z" fill="#E5E5E5"/>
</svg>
