<svg width="20" height="23" viewBox="0 0 20 33" fill="none" xmlns="http://www.w3.org/2000/svg">
<rect x="1" y="1" width="18" height="28" rx="4" stroke="#E5E5E5" stroke-width="2"/>
<path d="M16.2672 5.94739H3.71792C3.3731 5.94739 3.08984 6.2306 3.08984 6.57537C3.08984 6.92015 3.3731 7.20336 3.71792 7.20336H16.2672C16.612 7.20336 16.8953 6.92015 16.8953 6.57537C16.8953 6.2306 16.612 5.94739 16.2672 5.94739Z" fill="#E5E5E5"/>
<g clip-path="url(#clip0_1205_996)">
<path d="M14.1976 18.0482C13.5854 18.0482 12.9842 17.9534 12.4146 17.767C12.1354 17.6728 11.7923 17.7592 11.6219 17.9325L10.4975 18.7728C9.19352 18.0837 8.39029 17.2887 7.70372 16.0075L8.52755 14.9233C8.74159 14.7117 8.81836 14.4026 8.72638 14.1126C8.53732 13.5456 8.44128 12.9508 8.44128 12.3444C8.4413 11.9064 8.08133 11.55 7.63888 11.55H5.80242C5.35997 11.55 5 11.9064 5 12.3444C5 17.3653 9.12599 21.45 14.1976 21.45C14.6401 21.45 15 21.0936 15 20.6556V18.8426C15 18.4046 14.64 18.0482 14.1976 18.0482Z" fill="#E5E5E5"/>
</g>
<path d="M16.2672 26.5477H3.71792C3.3731 26.5477 3.08984 26.8309 3.08984 27.1757C3.08984 27.5205 3.3731 27.8037 3.71792 27.8037H16.2672C16.612 27.8037 16.8953 27.5205 16.8953 27.1757C16.8953 26.8309 16.612 26.5477 16.2672 26.5477Z" fill="#E5E5E5"/>
<defs>
<clipPath id="clip0_1205_996">
<rect width="10" height="9.9" fill="white" transform="translate(5 11.55)"/>
</clipPath>
</defs>
</svg>
