<svg width="38" height="38" viewBox="0 0 38 38" fill="none" xmlns="http://www.w3.org/2000/svg">
<path d="M31.668 19C31.668 19.4372 31.3135 19.7917 30.8763 19.7917H16.954L21.1444 23.982C21.2928 24.1304 21.3762 24.3317 21.3762 24.5416C21.3763 24.9788 21.0218 25.3333 20.5846 25.3334C20.3746 25.3335 20.1732 25.2501 20.025 25.1014L14.4833 19.5598C14.4832 19.5597 14.4831 19.5597 14.483 19.5596C14.1741 19.2504 14.1742 18.7493 14.4833 18.4404L20.025 12.8987C20.3317 12.6024 20.8181 12.6024 21.1249 12.8987C21.4394 13.2025 21.4481 13.7036 21.1444 14.0181L16.954 18.2084H30.8763C31.3135 18.2084 31.668 18.5628 31.668 19ZM10.293 3.16669H27.7096C29.8949 3.16872 31.6659 4.93972 31.668 7.12502V13.4584C31.668 13.8955 31.3135 14.25 30.8763 14.25C30.4391 14.25 30.0846 13.8955 30.0846 13.4584V7.12502C30.0832 5.81392 29.0207 4.75147 27.7096 4.75002H10.293C8.98187 4.75147 7.91942 5.81392 7.91797 7.12502V30.875C7.91942 32.1861 8.98187 33.2486 10.293 33.25H27.7096C29.0207 33.2486 30.0832 32.1861 30.0846 30.875V24.5417C30.0846 24.1045 30.4391 23.75 30.8763 23.75C31.3135 23.75 31.668 24.1045 31.668 24.5417V30.875C31.6659 33.0603 29.8949 34.8313 27.7096 34.8334H10.293C8.10767 34.8313 6.33667 33.0603 6.33464 30.875V7.12502C6.33667 4.93972 8.10767 3.16872 10.293 3.16669Z" fill="#E5E5E5"/>
</svg>
