<svg width="22" height="20" viewBox="0 0 22 20" fill="none" xmlns="http://www.w3.org/2000/svg">
<g id="smartphone (2) 1" clip-path="url(#clip0_55_21072)">
<g id="Group">
<g id="Group_2">
<path id="Vector" d="M14.2071 0H7.79038C6.02123 0 4.58203 1.30832 4.58203 2.91668V3.75V15.4167V17.0834C4.58203 18.6917 6.02118 20 7.79038 20H14.207C15.9762 20 17.4154 18.6917 17.4154 17.0834V15.4167V3.75V2.91668C17.4154 1.30832 15.9762 0 14.2071 0ZM14.2071 1.66668C14.4601 1.66668 14.6654 1.85336 14.6654 2.08336C14.6654 2.31336 14.4601 2.5 14.2071 2.5C13.9541 2.5 13.7487 2.31332 13.7487 2.08332C13.7487 1.85332 13.9541 1.66668 14.2071 1.66668ZM9.62373 1.66668H12.3737C12.6267 1.66668 12.8321 1.85336 12.8321 2.08336C12.8321 2.31336 12.6267 2.5 12.3737 2.5H9.62373C9.37073 2.5 9.16538 2.31332 9.16538 2.08332C9.16538 1.85332 9.37073 1.66668 9.62373 1.66668ZM10.9987 18.3333C10.4936 18.3333 10.0821 17.9591 10.0821 17.5C10.0821 17.0408 10.4937 16.6667 10.9987 16.6667C11.5038 16.6667 11.9154 17.0409 11.9154 17.5C11.9154 17.9592 11.5038 18.3333 10.9987 18.3333ZM16.4987 15H5.49873V4.16668H16.4987V15Z" fill="white"/>
</g>
</g>
</g>
<defs>
<clipPath id="clip0_55_21072">
<rect width="22" height="20" fill="white"/>
</clipPath>
</defs>
</svg>
