<svg width="34" height="34" viewBox="0 0 34 34" fill="none" xmlns="http://www.w3.org/2000/svg">
<g clip-path="url(#clip0_1205_986)">
<path d="M22.4951 22.4942C21.7746 23.2166 20.9185 23.7895 19.976 24.18C19.0334 24.5705 18.023 24.7709 17.0028 24.7696C14.8516 24.7696 12.9097 23.9 11.5039 22.4942C12.0454 21.5103 12.8416 20.69 13.8091 20.1194C14.7765 19.5489 15.8796 19.249 17.0028 19.2512C19.3697 19.2512 21.4293 20.5589 22.4951 22.4942Z" stroke="#E5E5E5" stroke-width="1.8" stroke-miterlimit="10" stroke-linecap="round" stroke-linejoin="round"/>
<path d="M17.0014 19.2544C15.4786 19.2544 14.2422 17.4289 14.2422 15.9067C14.2422 14.3846 15.4786 13.1469 17.0014 13.1469C18.5242 13.1469 19.7606 14.3839 19.7606 15.9061C19.7606 17.4282 18.5242 19.2544 17.0014 19.2544Z" stroke="#E5E5E5" stroke-width="1.8" stroke-miterlimit="10" stroke-linecap="round" stroke-linejoin="round"/>
<path d="M24.7724 17.002C24.7724 19.1466 23.9028 21.0885 22.497 22.4943C21.7766 23.2166 20.9205 23.7895 19.9779 24.18C19.0354 24.5705 18.0249 24.7709 17.0047 24.7696C14.8536 24.7696 12.9116 23.9 11.5059 22.4943C10.7835 21.7738 10.2106 20.9177 9.82009 19.9752C9.4296 19.0326 9.22923 18.0222 9.23047 17.002C9.23047 12.7062 12.7089 9.22772 17.0047 9.22772C21.2939 9.22772 24.7724 12.7062 24.7724 17.002V17.002Z" stroke="#E5E5E5" stroke-width="1.8" stroke-miterlimit="10" stroke-linecap="round" stroke-linejoin="round"/>
<path d="M32.6932 15.317V18.683L29.6267 19.8495C29.3008 21.2889 28.7304 22.6619 27.9404 23.9085L29.2808 26.9032L26.908 29.2832L23.9055 27.9362C22.6623 28.7275 21.2918 29.298 19.8543 29.6225L18.68 32.6884H15.3218L14.1475 29.6218C12.71 29.2974 11.3395 28.7269 10.0963 27.9356L7.09382 29.2838L4.72102 26.9038L6.0614 23.9085C5.27117 22.6619 4.70059 21.289 4.37448 19.8495L1.30859 18.683V15.317L4.37513 14.1505C4.69814 12.7101 5.2687 11.3367 6.0614 10.0915L4.72102 7.09685L7.09382 4.71685L10.0963 6.06377C11.3395 5.27247 12.71 4.70199 14.1475 4.3775L15.3218 1.31161H18.68L19.8543 4.37815C21.2918 4.70264 22.6623 5.27313 23.9055 6.06442L26.908 4.71619L29.2808 7.09619L27.9404 10.0915C28.7333 11.3367 29.3041 12.7101 29.6273 14.1505L32.6932 15.317Z" stroke="#E5E5E5" stroke-width="1.8" stroke-miterlimit="10" stroke-linecap="round" stroke-linejoin="round"/>
</g>
<defs>
<clipPath id="clip0_1205_986">
<rect width="34" height="34" fill="white"/>
</clipPath>
</defs>
</svg>
