<svg width="16" height="16" viewBox="0 0 16 16" fill="none" xmlns="http://www.w3.org/2000/svg">
<g id="001-wifi 4" clip-path="url(#clip0_55_21056)">
<g id="Group">
<g id="Group_2">
<path id="Vector" d="M7.99621 11.3218C7.23149 11.3218 6.60938 11.9419 6.60938 12.7038C6.60938 13.4658 7.23149 14.0862 7.99621 14.0862C8.76118 14.0862 9.38329 13.4658 9.38329 12.7038C9.38329 11.9419 8.76105 11.3218 7.99621 11.3218Z" fill="white"/>
</g>
</g>
<g id="Group_3">
<g id="Group_4">
<path id="Vector_2" d="M11.3804 9.43895C10.4775 8.53656 9.27567 8.03937 7.99673 8.03937C6.72271 8.03937 5.52415 8.53328 4.62151 9.42999C4.25694 9.79279 4.25631 10.3839 4.61999 10.7473C4.79666 10.9242 5.03188 11.0214 5.28224 11.0214C5.53147 11.0214 5.7658 10.9247 5.94222 10.7493C6.49153 10.2034 7.22116 9.9027 7.99673 9.9027C8.7752 9.9027 9.50685 10.2053 10.0565 10.7545C10.2332 10.9309 10.4683 11.0283 10.7184 11.0283C10.9679 11.0283 11.2021 10.9317 11.3786 10.7563C11.7437 10.3934 11.7443 9.80263 11.3804 9.43895Z" fill="white"/>
</g>
</g>
<g id="Group_5">
<g id="Group_6">
<path id="Vector_3" d="M15.7269 5.10666C13.6627 3.04752 10.9171 1.91382 7.99658 1.91382C5.07993 1.91382 2.33718 3.04487 0.273581 5.09912C-0.0909834 5.46192 -0.0912358 6.053 0.273077 6.41643C0.449617 6.59246 0.684458 6.68925 0.934316 6.68925C1.18405 6.68925 1.41864 6.59284 1.59518 6.41693C3.30569 4.71437 5.57902 3.77652 7.99658 3.77652C10.4177 3.77652 12.6933 4.71626 14.4042 6.42337C14.5807 6.59953 14.8159 6.6967 15.0657 6.6967C15.3153 6.6967 15.5498 6.59978 15.7263 6.42413C16.091 6.06104 16.0913 5.46975 15.7269 5.10666Z" fill="white"/>
</g>
</g>
<g id="Group_7">
<g id="Group_8">
<path id="Vector_4" d="M13.4969 7.32715C12.0275 5.8612 10.0736 5.05396 7.99499 5.05396C5.92016 5.05396 3.96913 5.85867 2.50103 7.31946C2.32423 7.49524 2.22694 7.72907 2.22656 7.97804C2.22656 8.22677 2.32348 8.46085 2.50002 8.63689C2.67656 8.81305 2.91153 8.91021 3.16138 8.91021C3.41086 8.91021 3.64545 8.8133 3.82224 8.63789C4.93752 7.5283 6.4195 6.91703 7.99499 6.91703C9.57376 6.91703 11.0578 7.53045 12.1738 8.64383C12.3506 8.82024 12.5854 8.91741 12.8354 8.91741C13.085 8.91741 13.3197 8.82049 13.496 8.64484C13.6726 8.46905 13.7701 8.23522 13.7702 7.98625C13.7705 7.73727 13.6733 7.50344 13.4969 7.32715Z" fill="white"/>
</g>
</g>
</g>
<defs>
<clipPath id="clip0_55_21056">
<rect width="16" height="16" fill="white"/>
</clipPath>
</defs>
</svg>
